<svg width="138" height="24" viewBox="0 0 138 24" fill="none" xmlns="http://www.w3.org/2000/svg">
<path d="M9.40001 0.536011C11.768 0.536011 13.8373 1.00534 15.608 1.94401C17.3787 2.88268 18.744 4.20534 19.704 5.91201C20.6853 7.59734 21.176 9.54934 21.176 11.768C21.176 13.9653 20.6853 15.9173 19.704 17.624C18.744 19.3307 17.368 20.6533 15.576 21.592C13.8053 22.5307 11.7467 23 9.40001 23H0.984009V0.536011H9.40001ZM9.04801 18.264C11.1173 18.264 12.728 17.6987 13.88 16.568C15.032 15.4373 15.608 13.8373 15.608 11.768C15.608 9.69868 15.032 8.08801 13.88 6.93601C12.728 5.78401 11.1173 5.20801 9.04801 5.20801H6.45601V18.264H9.04801Z" fill="#025EE1"/>
<path d="M32.362 23.256C30.6127 23.256 29.034 22.8827 27.626 22.136C26.2393 21.3893 25.1407 20.3227 24.33 18.936C23.5407 17.5493 23.146 15.928 23.146 14.072C23.146 12.2373 23.5513 10.6267 24.362 9.24001C25.1727 7.83201 26.282 6.75468 27.69 6.00801C29.098 5.26134 30.6767 4.88801 32.426 4.88801C34.1753 4.88801 35.754 5.26134 37.162 6.00801C38.57 6.75468 39.6793 7.83201 40.49 9.24001C41.3007 10.6267 41.706 12.2373 41.706 14.072C41.706 15.9067 41.29 17.528 40.458 18.936C39.6473 20.3227 38.5273 21.3893 37.098 22.136C35.69 22.8827 34.1113 23.256 32.362 23.256ZM32.362 18.52C33.4073 18.52 34.2927 18.136 35.018 17.368C35.7647 16.6 36.138 15.5013 36.138 14.072C36.138 12.6427 35.7753 11.544 35.05 10.776C34.346 10.008 33.4713 9.62401 32.426 9.62401C31.3593 9.62401 30.474 10.008 29.77 10.776C29.066 11.5227 28.714 12.6213 28.714 14.072C28.714 15.5013 29.0553 16.6 29.738 17.368C30.442 18.136 31.3167 18.52 32.362 18.52Z" fill="#025EE1"/>
<path d="M87.1425 23H81.6705L72.5185 9.14401V23H67.0465V0.536011H72.5185L81.6705 14.456V0.536011H87.1425V23Z" fill="#025EE1"/>
<path d="M99.237 23.256C97.4877 23.256 95.909 22.8827 94.501 22.136C93.1143 21.3893 92.0157 20.3227 91.205 18.936C90.4157 17.5493 90.021 15.928 90.021 14.072C90.021 12.2373 90.4263 10.6267 91.237 9.24001C92.0477 7.83201 93.157 6.75468 94.565 6.00801C95.973 5.26134 97.5517 4.88801 99.301 4.88801C101.05 4.88801 102.629 5.26134 104.037 6.00801C105.445 6.75468 106.554 7.83201 107.365 9.24001C108.176 10.6267 108.581 12.2373 108.581 14.072C108.581 15.9067 108.165 17.528 107.333 18.936C106.522 20.3227 105.402 21.3893 103.973 22.136C102.565 22.8827 100.986 23.256 99.237 23.256ZM99.237 18.52C100.282 18.52 101.168 18.136 101.893 17.368C102.64 16.6 103.013 15.5013 103.013 14.072C103.013 12.6427 102.65 11.544 101.925 10.776C101.221 10.008 100.346 9.62401 99.301 9.62401C98.2343 9.62401 97.349 10.008 96.645 10.776C95.941 11.5227 95.589 12.6213 95.589 14.072C95.589 15.5013 95.9303 16.6 96.613 17.368C97.317 18.136 98.1917 18.52 99.237 18.52Z" fill="#025EE1"/>
<path d="M137.116 5.14401L132.284 23H126.236L123.42 11.416L120.508 23H114.492L109.628 5.14401H115.1L117.628 17.912L120.636 5.14401H126.428L129.468 17.848L131.964 5.14401H137.116Z" fill="#025EE1"/>
<path d="M50.081 0.536011V23H44.609V0.536011H50.081Z" fill="#C7D6EB"/>
<path d="M63.9985 18.36V23H61.2145C59.2305 23 57.6838 22.52 56.5745 21.56C55.4652 20.5787 54.9105 18.9893 54.9105 16.792V9.68801H52.7345V5.14401H54.9105V0.792011H60.3825V5.14401H63.9665V9.68801H60.3825V16.856C60.3825 17.3893 60.5105 17.7733 60.7665 18.008C61.0225 18.2427 61.4492 18.36 62.0465 18.36H63.9985Z" fill="#C7D6EB"/>
</svg>
